<svg width="460" height="437" viewBox="0 0 460 437" fill="none" xmlns="http://www.w3.org/2000/svg">
<path d="M229.997 426.499C339.013 426.499 427.388 338.124 427.388 229.108C427.388 120.092 339.013 31.717 229.997 31.717C120.981 31.717 32.606 120.092 32.606 229.108C32.606 338.124 120.981 426.499 229.997 426.499Z" fill="#EEEEEE"/>
<path d="M268.403 0L292.137 74.068L230 119.724L167.862 73.813L191.597 0H268.403Z" fill="#FF0000"/>
<path d="M23.955 123.063L101.455 122.874L125.927 195.904L63.51 241.215L0.610992 196.235L23.955 123.063Z" fill="#FF0000"/>
<path d="M459.56 197.493L396.243 242.183L334.248 196.478L359.293 123.528L436.616 124.194L459.56 197.493Z" fill="#FF0000"/>
<path d="M333.993 436.855L271.557 390.942L295.284 317.667L372.411 318.329L396.258 391.886L333.993 436.855Z" fill="#FF0000"/>
<path d="M63.736 389.144L88.901 315.843L165.918 316.599L188.327 390.401L125.252 435.133L63.736 389.144Z" fill="#FF0000"/>
<path d="M191.089 290L167.041 215.485L230 169.491L292.958 215.61L268.91 290H191.089Z" fill="#FF0000"/>
<path d="M230 44C279.683 44 326.391 63.347 361.522 98.478C396.653 133.609 416 180.317 416 230C416 279.683 396.653 326.391 361.522 361.522C326.391 396.653 279.683 416 230 416C180.317 416 133.609 396.653 98.478 361.522C63.347 326.391 44 279.683 44 230C44 180.317 63.347 133.609 98.478 98.478C133.609 63.347 180.317 44 230 44ZM230 30C119.543 30 30 119.543 30 230C30 340.457 119.543 430 230 430C340.457 430 430 340.457 430 230C430 119.543 340.457 30 230 30Z" fill="#FF0000"/>
<path d="M265.91 286.407L297.284 321.667" stroke="#FF0000" stroke-width="5" stroke-miterlimit="10"/>
<path d="M161.91 321.667L193.284 286.407" stroke="#FF0000" stroke-width="5" stroke-miterlimit="10"/>
<path d="M286.208 218.721L342.786 192.286" stroke="#FF0000" stroke-width="5" stroke-miterlimit="10"/>
<path d="M173.786 218.721L117.208 192.286" stroke="#FF0000" stroke-width="5" stroke-miterlimit="10"/>
<path d="M230.5 178V109" stroke="#FF0000" stroke-width="5" stroke-miterlimit="10"/>
<path d="M177.236 391.5L91.862 328.512L59.252 227.669L91.862 128.917L177.236 68.5H282.764L368.138 128.677L400.748 228.114L368.138 328.975L282.764 391.5H177.236Z" stroke="#FF0000" stroke-width="5" stroke-miterlimit="10"/>
</svg>
